# xmcd
#
# Track frame offsets: 
#        187
#        1000
#        29362
#        51880
#        75140
#        99245
#        121907
#        145282
#        171602
#        200780
#        223290
#        245125
#        272617
#        300045
#
# Disc length: 4307 seconds
#
# Revision: 4
# Processed by: cddbd v1.5.2PL0 Copyright (c) Steve Scherf et al.
# Submitted via: ExactAudioCopy v0.95a5
#
DISCID=ba10d10e
DTITLE=Bobby Brown - k-Bobby
DYEAR=1992
DGENRE=R&B
TTITLE0=Humpin' Around (Prelude)
TTITLE1=Humpin' Around
TTITLE2=Two Can Play That Game
TTITLE3=Get Away
TTITLE4=Til The End Of Time
TTITLE5=Good Enough
TTITLE6=Pretty Little Girl
TTITLE7=Lovin' You Down
TTITLE8=One More Night
TTITLE9=Something In Common (Duet with Whitney Houston)
TTITLE10=That's The Way Love Is
TTITLE11=College Girl
TTITLE12=Storm Away
TTITLE13=I'm Your Friend (Duet with Debra Winans)
EXTD=
EXTT0=
EXTT1=
EXTT2=
EXTT3=
EXTT4=
EXTT5=
EXTT6=
EXTT7=
EXTT8=
EXTT9=
EXTT10=
EXTT11=
EXTT12=
EXTT13=
PLAYORDER=
